<svg xmlns="http://www.w3.org/2000/svg" viewBox="0 0 512 512">
  <defs>
    <mask id="ko0" maskUnits="userSpaceOnUse" x="0" y="0" width="512" height="512">
      <path d="M140 28H316L408 120V448a36 36 0 0 1-36 36H140a36 36 0 0 1-36-36V64a36 36 0 0 1 36-36z" fill="none" stroke="#fff" stroke-width="24" stroke-linejoin="round"/><path d="M316 28V96a24 24 0 0 0 24 24H408" fill="none" stroke="#fff" stroke-width="24" stroke-linejoin="round" stroke-linecap="round"/>
    <path d="M206 226V186a50 50 0 0 1 100 0v40" fill="none" stroke="#fff" stroke-width="26" stroke-linecap="butt"/>
    <rect x="166" y="212" width="180" height="142" rx="26" fill="#fff"/><rect x="178" y="388" width="156" height="52" rx="14" fill="#fff"/>
    <path d="M209 326V258l47 41 47-41v68" transform="translate(0 -6)" fill="none" stroke="#000" stroke-width="23" stroke-linecap="round" stroke-linejoin="round"/>
    <g fill="none" stroke="#000" stroke-width="8" stroke-linecap="round" stroke-linejoin="round" transform="translate(0 -6)"><path d="M233 431V418a8 8 0 0 1 16 0v13M249 418a8 8 0 0 1 16 0v13" /><circle cx="288" cy="420.5" r="11"/><path d="M299 403V431"/></g><circle cx="215" cy="422" r="5.5" fill="#000"/>
    </mask>
    <filter id="ko0s" x="-20%" y="-20%" width="140%" height="140%"><feGaussianBlur stdDeviation="10"/></filter>
  </defs>
  <path d="M140 28H316L408 120V448a36 36 0 0 1-36 36H140a36 36 0 0 1-36-36V64a36 36 0 0 1 36-36z" fill="#000" opacity=".18" transform="translate(0 10)" filter="url(#ko0s)"/>
  <path d="M140 28H316L408 120V448a36 36 0 0 1-36 36H140a36 36 0 0 1-36-36V64a36 36 0 0 1 36-36z" fill="#fff"/>
  <path d="M316 28V96a24 24 0 0 0 24 24H408z" fill="#e4e4e7"/>
  <rect width="512" height="512" fill="#111" mask="url(#ko0)"/></svg>